<?xml version="1.0" encoding="utf-8"?>
<!-- Svg Vector Icons : http://www.onlinewebfonts.com/icon -->
<!DOCTYPE svg PUBLIC "-//W3C//DTD SVG 1.1//EN" "http://www.w3.org/Graphics/SVG/1.1/DTD/svg11.dtd">
<svg version="1.1" xmlns="http://www.w3.org/2000/svg" xmlns:xlink="http://www.w3.org/1999/xlink" x="0px" y="0px" viewBox="0 0 1000 1000" enable-background="new 0 0 1000 1000" xml:space="preserve">
<metadata> Svg Vector Icons : http://www.onlinewebfonts.com/icon </metadata>
<g><g transform="translate(0.000000,511.000000) scale(0.100000,-0.100000)"><path d="M228.3,4975c-70-32.1-128.3-140-128.3-236.2c0-43.8,650.4-714.6,2280.8-2345L4664.6,110l-863.3-863.3l-860.4-860.4l-145.8,87.5c-379.2,233.3-735,274.2-1397.1,166.2c-414.2-67.1-475.4-84.6-530.8-151.7c-134.2-151.7-105-212.9,312.1-635.8l376.3-382.1l-726.2-729.2C161.3-3926.7,100-3999.6,100-4090c0-87.5,37.9-137.1,300.4-399.6S712.5-4790,800-4790c90.4,0,163.3,61.2,831.2,729.2l729.2,729.2l350-350c358.7-358.7,457.9-428.8,583.3-396.7c119.6,29.2,160.4,134.2,239.2,606.7c105,641.7,61.2,1000.4-169.2,1376.7l-87.5,145.8l860.4,860.4L5000-225.4l857.5-857.5l857.5-854.6l-113.7-224.6c-119.6-233.3-201.3-539.6-201.3-761.2c0-72.9,32.1-335.4,72.9-583.3c64.2-399.6,81.7-460.8,148.8-516.3c151.7-137.1,245-87.5,682.5,352.9l335.4,338.3l729.2-729.2c667.9-667.9,740.8-729.2,831.3-729.2c87.5,0,137.1,37.9,399.6,300.4S9900-4177.5,9900-4090c0,90.4-61.2,163.3-729.2,831.3l-729.2,729.2l338.3,335.4c440.4,437.5,490,530.8,355.8,682.5c-58.3,67.1-119.6,84.6-519.2,148.7c-247.9,40.8-510.4,72.9-583.3,72.9c-221.7,0-527.9-81.7-761.2-201.3L7047.5-1605l-854.6,857.5L5335.4,110l2283.8,2283.7C9249.6,4027.1,9900,4695,9900,4738.8c0,154.6-116.7,271.2-271.2,271.2c-43.8,0-711.7-650.4-2345-2280.8L5000,445.4L2716.3,2729.2C321.7,5120.8,394.6,5056.7,228.3,4975z M2439.2-1855.8c460.8-218.8,723.3-662.1,685.4-1155c-32.1-414.2,29.2-446.3-834.2,420l-770,770l113.8,20.4c61.3,11.7,128.3,23.3,142.9,32.1c17.5,5.8,134.2,5.8,265.4,0C2217.5-1777.1,2316.7-1797.5,2439.2-1855.8z M8403.8-1806.2c61.2-23.3-2.9-93.3-702.9-793.3l-770-770l-26.3,113.7c-11.7,61.3-23.3,233.3-20.4,376.3c0,227.5,11.7,285.8,84.6,437.5c142.9,300.4,475.4,580.4,784.6,659.2C7861.2-1753.8,8310.4-1771.2,8403.8-1806.2z M1412.5-3605.8L800-4221.2l-64.2,67.1l-67.1,64.2l612.5,612.5l609.6,609.6l70-61.3l67.1-64.2L1412.5-3605.8z M9264.2-4154.2l-64.2-67.1l-612.5,612.5l-609.6,609.6l61.3,70l64.2,67.1l612.5-615.4l615.4-612.5L9264.2-4154.2z"/></g></g>
</svg>