<?xml version="1.0" encoding="utf-8"?>
<!-- Generator: Adobe Illustrator 19.2.1, SVG Export Plug-In . SVG Version: 6.00 Build 0)  -->
<svg xmlns="http://www.w3.org/2000/svg" xmlns:xlink="http://www.w3.org/1999/xlink" version="1.1" id="Layer" x="0px" y="0px" width="512" height="512" viewBox="0 0 64 64" enable-background="new 0 0 64 64" xml:space="preserve">
<path d="M46,41h-2.028C45.864,38.49,47,35.379,47,32v-8c0-8.271-6.729-15-15-15s-15,6.729-15,15v8c0,3.379,1.136,6.49,3.028,9H18  c-4.963,0-9,4.038-9,9v4c0,0.552,0.447,1,1,1h44c0.553,0,1-0.448,1-1v-4C55,45.038,50.963,41,46,41z M42,53H22c-1.654,0-3-1.346-3-3  v-7h2.836c1.084,1.002,2.313,1.844,3.656,2.494c0.064,0.039,0.127,0.072,0.199,0.096C27.612,46.485,29.745,47,32,47  c2.256,0,4.389-0.515,6.31-1.411c0.071-0.023,0.132-0.056,0.195-0.094c1.344-0.65,2.574-1.492,3.658-2.495H45v7  C45,51.654,43.654,53,42,53z M31,23v21.949c-1.407-0.108-2.753-0.431-4-0.952V23H31z M37,23v20.997  c-1.247,0.522-2.593,0.844-4,0.952V23H37z M45,32c0,4.59-2.398,8.623-6,10.937V23h3c1.654,0,3,1.346,3,3V32z M32,11  c6.441,0,11.788,4.713,12.81,10.868C44.008,21.322,43.041,21,42,21H22c-1.041,0-2.008,0.322-2.81,0.868  C20.212,15.713,25.559,11,32,11z M19,26c0-1.654,1.346-3,3-3h3v19.937C21.398,40.623,19,36.59,19,32V26z M11,50  c0-3.519,2.614-6.432,6-6.92V50c0,1.13,0.391,2.162,1.026,3H11V50z M53,53h-7.026C46.609,52.162,47,51.13,47,50v-6.92  c3.386,0.488,6,3.401,6,6.92V53z"/>
</svg>
